<svg width="36" height="36" viewBox="0 0 36 36" fill="none" xmlns="http://www.w3.org/2000/svg">
<path d="M16.6357 6.53745L15.9537 5.80618L15.9535 5.80635L16.6357 6.53745ZM19.3643 6.53745L20.0465 5.80635L20.0463 5.80618L19.3643 6.53745ZM29.3643 15.8695L28.682 16.6006L28.682 16.6006L29.3643 15.8695ZM28 30.9984V31.9984H28.0002L28 30.9984ZM21.1113 25.4212H22.1113C22.1113 24.869 21.6636 24.4212 21.1113 24.4212V25.4212ZM14.8887 25.4212V24.4212C14.3364 24.4212 13.8887 24.869 13.8887 25.4212H14.8887ZM8 30.9984V31.9984V30.9984ZM6.63574 15.8695L7.318 16.6006L7.31801 16.6006L6.63574 15.8695ZM16.6357 6.53745L17.3178 7.26872C17.702 6.91043 18.298 6.91043 18.6822 7.26872L19.3643 6.53745L20.0463 5.80618C18.8939 4.73127 17.1061 4.73127 15.9537 5.80618L16.6357 6.53745ZM19.3643 6.53745L18.682 7.26855L28.682 16.6006L29.3643 15.8695L30.0465 15.1384L20.0465 5.80635L19.3643 6.53745ZM29.3643 15.8695L28.682 16.6006C28.8846 16.7897 29 17.0551 29 17.3324H30H31C31 16.5008 30.6546 15.7058 30.0465 15.1384L29.3643 15.8695ZM30 17.3324H29V28.9984H30H31V17.3324H30ZM30 28.9984H29C29 29.5504 28.5523 29.9983 27.9998 29.9984L28 30.9984L28.0002 31.9984C29.6565 31.9981 31 30.6553 31 28.9984H30ZM28 30.9984V29.9984H23.1113V30.9984V31.9984H28V30.9984ZM23.1113 30.9984V29.9984C22.559 29.9984 22.1113 29.5507 22.1113 28.9984H21.1113H20.1113C20.1113 30.6552 21.4545 31.9984 23.1113 31.9984V30.9984ZM21.1113 28.9984H22.1113V25.4212H21.1113H20.1113V28.9984H21.1113ZM21.1113 25.4212V24.4212H14.8887V25.4212V26.4212H21.1113V25.4212ZM14.8887 25.4212H13.8887V28.9984H14.8887H15.8887V25.4212H14.8887ZM14.8887 28.9984H13.8887C13.8887 29.5507 13.441 29.9984 12.8887 29.9984V30.9984V31.9984C14.5455 31.9984 15.8887 30.6552 15.8887 28.9984H14.8887ZM12.8887 30.9984V29.9984H8V30.9984V31.9984H12.8887V30.9984ZM8 30.9984V29.9984C7.44772 29.9984 7 29.5507 7 28.9984H6H5C5 30.6552 6.34315 31.9984 8 31.9984V30.9984ZM6 28.9984H7V17.3324H6H5V28.9984H6ZM6 17.3324H7C7 17.0551 7.11536 16.7897 7.318 16.6006L6.63574 15.8695L5.95348 15.1384C5.34545 15.7058 5 16.5008 5 17.3324H6ZM6.63574 15.8695L7.31801 16.6006L17.318 7.26855L16.6357 6.53745L15.9535 5.80635L5.95347 15.1384L6.63574 15.8695Z" fill="#858585"/>
</svg>
