<svg width="36" height="36" viewBox="0 0 36 36" fill="none" xmlns="http://www.w3.org/2000/svg">
<path d="M17.96 3C20.7214 3 22.96 5.23858 22.96 8C22.96 10.4189 21.2421 12.4361 18.96 12.8994V22C18.96 22.5523 18.5122 23 17.96 23C17.4077 23 16.96 22.5523 16.96 22V12.8994C14.6778 12.4361 12.96 10.4189 12.96 8C12.96 5.23858 15.1985 3 17.96 3ZM16.46 5C15.6315 5 14.96 5.67157 14.96 6.5C14.96 7.32843 15.6315 8 16.46 8C17.2884 8 17.96 7.32843 17.96 6.5C17.96 5.67157 17.2884 5 16.46 5Z" fill="black"/>
<path d="M23.6826 13C24.6373 13 25.5845 13.1792 26.4688 13.5293C27.353 13.8794 28.1597 14.3938 28.8408 15.0449H28.8398C29.5215 15.6959 30.065 16.4714 30.4365 17.3281C30.8081 18.1849 31 19.1049 31 20.0352C31 20.9656 30.8081 21.8863 30.4365 22.7432C30.1114 23.4928 29.6546 24.1802 29.0889 24.7764L28.8398 25.0254L27.623 26.1885L20.0723 33.4033C18.9852 34.4418 17.3126 34.5063 16.1523 33.5977L15.9277 33.4033L8.37598 26.1885L7.15918 25.0254C5.78252 23.71 5 21.9159 5 20.0352C5.00007 18.1544 5.78248 16.3603 7.15918 15.0449C8.53438 13.7311 10.3904 13.001 12.3164 13.001C13.1191 13.001 13.9089 13.1276 14.6562 13.3701L15 13.4912V21C15 22.6569 16.3431 24 18 24C19.6569 24 21 22.6569 21 21V13.4922L21.3408 13.3701L21.625 13.2842C22.2924 13.0961 22.9852 13 23.6826 13Z" fill="black"/>
</svg>
