<svg width="36" height="36" viewBox="0 0 36 36" fill="none" xmlns="http://www.w3.org/2000/svg">
<path d="M17 22C17 22.5523 17.4477 23 18 23C18.5523 23 19 22.5523 19 22H17ZM18 12H17V22H18H19V12H18Z" fill="#858585"/>
<circle cx="18" cy="8" r="4" stroke="#858585" stroke-width="2"/>
<path d="M23.624 13C24.5764 13 25.5204 13.18 26.4023 13.5303C27.284 13.8805 28.0877 14.395 28.7666 15.0459H28.7676C29.4471 15.697 29.9882 16.4726 30.3584 17.3291C30.7286 18.1856 30.9199 19.1053 30.9199 20.0352C30.9199 20.9651 30.7287 21.8856 30.3584 22.7422C30.0345 23.4914 29.5793 24.1783 29.0156 24.7744L28.7676 25.0244L27.5547 26.1875L18.6514 34.7217C18.2645 35.0924 17.6544 35.0925 17.2676 34.7217L8.36523 26.1875L7.15137 25.0244C5.77906 23.7087 5 21.9147 5 20.0352C5.00007 18.1556 5.77897 16.3615 7.15137 15.0459C8.52234 13.7317 10.3735 13.0011 12.2949 13.001C12.9856 13.001 13.6669 13.0963 14.3203 13.2783V15.3838C13.6855 15.1339 12.9983 15.001 12.2949 15.001C10.8774 15.0011 9.52617 15.5412 8.53613 16.4902C7.5475 17.438 7.00007 18.7139 7 20.0352C7 21.3565 7.54744 22.6333 8.53613 23.5811L9.74902 24.7432L17.959 32.6143L26.1709 24.7432L27.3838 23.5811L27.5625 23.4004C27.9682 22.9714 28.2926 22.48 28.5225 21.9482C28.7852 21.3405 28.9199 20.6903 28.9199 20.0352C28.9199 19.3802 28.785 18.7306 28.5225 18.123C28.2925 17.5911 27.9683 17.099 27.5625 16.6699L27.3838 16.4902C26.894 16.0205 26.3096 15.6451 25.6641 15.3887C25.0185 15.1323 24.3251 15 23.624 15C22.9286 15 22.2407 15.1304 21.5996 15.3828V13.2773C22.2568 13.0942 22.9381 13 23.624 13Z" fill="#858585"/>
</svg>
